# xmcd CD database file
#
# Track frame offsets:
#	150
#	16925
#	37191
#	55622
#	81791
#	92149
#	104150
#	109728
#	132683
#	143234
#	168267
#	169408
#	176347
#	190439
#	209620
#	230728
#
# Disc length: 3320 seconds
#
# Revision: 0
# Processed by: cddbd v1.5.2PL0 Copyright (c) Steve Scherf et al.
# Submitted via: CDex 1.70beta2
#
DISCID=ec0cf610
DTITLE=Lucía Pulido Fernando Tarres y La Raza - Songbook I (Beliefs)
DYEAR=2005
DGENRE=Jazz
TTITLE0=Agüita demorada
TTITLE1=Ayer pasé por tu casa
TTITLE2=La arenosa
TTITLE3=Velo que bonito
TTITLE4=La hoguera
TTITLE5=Cantos de vaquería
TTITLE6=La rosa
TTITLE7=María que iba en el mar
TTITLE8=Caramba, oí
TTITLE9=Yo no tengo quien me quiera
TTITLE10=Llamando
TTITLE11=Grito de monte
TTITLE12=Cholita traidora
TTITLE13=José Escandón
TTITLE14=Bagualas
TTITLE15=Ay, por qué Dios me daría
EXTD=YEAR: 2005
EXTT0=
EXTT1=
EXTT2=
EXTT3=
EXTT4=
EXTT5=
EXTT6=
EXTT7=
EXTT8=
EXTT9=
EXTT10=
EXTT11=
EXTT12=
EXTT13=
EXTT14=
EXTT15=
PLAYORDER=
